<svg width="87" height="35" viewBox="0 0 87 35" fill="none" xmlns="http://www.w3.org/2000/svg">
<path fill-rule="evenodd" clip-rule="evenodd" d="M35.5 0.519615L34.1346 0.519615L31.7464 4.68235L86.8464 4.68235L84.9699 0.519615L83.5 0.519615L35.5 0.519615ZM84.6981 1.33138H83.5L34.6567 1.33138L33 4L85.874 4L84.6981 1.33138Z" fill="#FF009D"/>
<path fill-rule="evenodd" clip-rule="evenodd" d="M17.7877 4.16091L19.4828 0.418093L19.8991 0.887766L18.2041 4.63059L17.7877 4.16091Z" fill="#FF009D"/>
<path fill-rule="evenodd" clip-rule="evenodd" d="M21.8602 4.16091L23.5553 0.418093L23.9716 0.887766L22.2766 4.63059L21.8602 4.16091Z" fill="#FF009D"/>
<path fill-rule="evenodd" clip-rule="evenodd" d="M7.60647 4.16091L9.30154 0.418093L9.71789 0.887766L8.02281 4.63059L7.60647 4.16091Z" fill="#FF009D"/>
<path fill-rule="evenodd" clip-rule="evenodd" d="M9.64272 4.16091L11.3378 0.418093L11.7541 0.887766L10.0591 4.63059L9.64272 4.16091Z" fill="#FF009D"/>
<path fill-rule="evenodd" clip-rule="evenodd" d="M11.679 4.16091L13.374 0.418093L13.7904 0.887766L12.0953 4.63059L11.679 4.16091Z" fill="#FF009D"/>
<path fill-rule="evenodd" clip-rule="evenodd" d="M19.824 4.16091L21.5191 0.418093L21.9354 0.887766L20.2403 4.63059L19.824 4.16091Z" fill="#FF009D"/>
<path fill-rule="evenodd" clip-rule="evenodd" d="M13.7152 4.16091L15.4103 0.418093L15.8266 0.887766L14.1316 4.63059L13.7152 4.16091Z" fill="#FF009D"/>
<path fill-rule="evenodd" clip-rule="evenodd" d="M15.7515 4.16091L17.4465 0.418093L17.8629 0.887766L16.1678 4.63059L15.7515 4.16091Z" fill="#FF009D"/>
<path fill-rule="evenodd" clip-rule="evenodd" d="M23.8965 4.16091L25.5916 0.418093L26.0079 0.887766L24.3128 4.63059L23.8965 4.16091Z" fill="#FF009D"/>
<path fill-rule="evenodd" clip-rule="evenodd" d="M25.9327 4.16091L27.6278 0.418093L28.0441 0.887766L26.3491 4.63059L25.9327 4.16091Z" fill="#FF009D"/>
<path fill-rule="evenodd" clip-rule="evenodd" d="M27.969 4.16091L29.6641 0.418093L30.0804 0.887766L28.3853 4.63059L27.969 4.16091Z" fill="#FF009D"/>
<path fill-rule="evenodd" clip-rule="evenodd" d="M30.0052 4.16091L31.7003 0.418093L32.1166 0.887766L30.4216 4.63059L30.0052 4.16091Z" fill="#FF009D"/>
<path d="M0.5 14.4259L6.06141 6.42308H86.5V34.5H0.5V14.4259Z" stroke="#FF009D"/>
</svg>
