<svg width="134" height="35" viewBox="0 0 134 35" fill="none" xmlns="http://www.w3.org/2000/svg">
<path fill-rule="evenodd" clip-rule="evenodd" d="M53.4508 1.76843L52.4032 0.519615L48.7368 4.68235L133.326 4.68235L130.445 0.519615L129.136 1.76843L53.4508 1.76843ZM130.364 1.33138L129.341 2.3069L53.2108 2.3069L52.3937 1.33272L49.9177 4.14388L132.311 4.14388L130.364 1.33138Z" fill="#FF009D"/>
<path d="M65.2357 1.14402L59.2123 1.14402L54.2364 1.14402L53.4508 0.103342L129.398 0.103342L128.35 1.14402L71.259 1.14402L65.2357 1.14402Z" fill="#FF009D"/>
<path fill-rule="evenodd" clip-rule="evenodd" d="M27.3076 4.16091L29.9099 0.418093L30.549 0.887766L27.9468 4.63059L27.3076 4.16091Z" fill="#FF009D"/>
<path fill-rule="evenodd" clip-rule="evenodd" d="M33.5597 4.16091L36.162 0.418093L36.8011 0.887766L34.1989 4.63059L33.5597 4.16091Z" fill="#FF009D"/>
<path fill-rule="evenodd" clip-rule="evenodd" d="M11.6774 4.16091L14.2797 0.418093L14.9188 0.887766L12.3166 4.63059L11.6774 4.16091Z" fill="#FF009D"/>
<path fill-rule="evenodd" clip-rule="evenodd" d="M14.8034 4.16091L17.4057 0.418093L18.0449 0.887766L15.4426 4.63059L14.8034 4.16091Z" fill="#FF009D"/>
<path fill-rule="evenodd" clip-rule="evenodd" d="M17.9295 4.16091L20.5317 0.418093L21.1709 0.887766L18.5686 4.63059L17.9295 4.16091Z" fill="#FF009D"/>
<path fill-rule="evenodd" clip-rule="evenodd" d="M30.4336 4.16091L33.0359 0.418093L33.6751 0.887766L31.0728 4.63059L30.4336 4.16091Z" fill="#FF009D"/>
<path fill-rule="evenodd" clip-rule="evenodd" d="M21.0555 4.16091L23.6578 0.418093L24.297 0.887766L21.6947 4.63059L21.0555 4.16091Z" fill="#FF009D"/>
<path fill-rule="evenodd" clip-rule="evenodd" d="M24.1816 4.16091L26.7838 0.418093L27.423 0.887766L24.8207 4.63059L24.1816 4.16091Z" fill="#FF009D"/>
<path fill-rule="evenodd" clip-rule="evenodd" d="M36.6857 4.16091L39.288 0.418093L39.9272 0.887766L37.3249 4.63059L36.6857 4.16091Z" fill="#FF009D"/>
<path fill-rule="evenodd" clip-rule="evenodd" d="M39.8118 4.16091L42.414 0.418093L43.0532 0.887766L40.4509 4.63059L39.8118 4.16091Z" fill="#FF009D"/>
<path fill-rule="evenodd" clip-rule="evenodd" d="M42.9378 4.16091L45.5401 0.418093L46.1792 0.887766L43.577 4.63059L42.9378 4.16091Z" fill="#FF009D"/>
<path fill-rule="evenodd" clip-rule="evenodd" d="M46.0638 4.16091L48.6661 0.418093L49.3053 0.887766L46.703 4.63059L46.0638 4.16091Z" fill="#FF009D"/>
<path d="M0.5 14.4859L9.10182 6.42308H133.062V34.5H0.5V14.4859Z" stroke="#FF009D"/>
</svg>
