<svg width="156" height="156" viewBox="0 0 156 156" fill="none" xmlns="http://www.w3.org/2000/svg">
<path d="M0 6.11959e-07H6V14H0V6.11959e-07Z" fill="#FF009D"/>
<path d="M0 6V6.11959e-07L14 0V6L0 6Z" fill="#FF009D"/>
<path d="M156 6.11959e-07H150V14H156V6.11959e-07Z" fill="#FF009D"/>
<path d="M156 6V6.11959e-07L142 0V6L156 6Z" fill="#FF009D"/>
<path d="M156 156H150V142H156V156Z" fill="#FF009D"/>
<path d="M156 150V156L142 156V150L156 150Z" fill="#FF009D"/>
<path d="M1.46429 142.464L13.5357 154.536M1 155L0.999999 142L14 142L14 155L1 155Z" stroke="#FF009D" stroke-width="2"/>
<path d="M22.7988 147L21.1787 142.799H21.8232L23.1299 146.256L24.4395 142.799H25.0811L23.4609 147H22.7988ZM25.7988 142.799H28.8604V143.399H26.3994V144.601H28.5V145.201H26.3994V146.399H28.8604V147H25.7988V142.799ZM33.0791 144.299C33.0791 144.885 32.8291 145.219 32.3291 145.301L33.1201 147H32.4551L31.6758 145.321H30.3604V147H29.7598V142.799H32.0596C32.7393 142.799 33.0791 143.14 33.0791 143.821V144.299ZM30.3604 144.721H32.0273C32.1875 144.721 32.3027 144.686 32.373 144.615C32.4434 144.545 32.4785 144.43 32.4785 144.27V143.851C32.4785 143.69 32.4434 143.575 32.373 143.505C32.3027 143.435 32.1875 143.399 32.0273 143.399H30.3604V144.721ZM34.6846 145.201C34.6025 145.201 34.5244 145.186 34.4502 145.154C34.3779 145.121 34.3145 145.078 34.2598 145.025C34.2051 144.971 34.1621 144.907 34.1309 144.835C34.0996 144.761 34.084 144.683 34.084 144.601V143.399C34.084 143.317 34.0996 143.24 34.1309 143.168C34.1621 143.094 34.2051 143.03 34.2598 142.978C34.3145 142.923 34.3779 142.88 34.4502 142.849C34.5244 142.815 34.6025 142.799 34.6846 142.799H36.7236C36.8057 142.799 36.8828 142.815 36.9551 142.849C37.0293 142.88 37.0938 142.923 37.1484 142.978C37.2031 143.03 37.2461 143.094 37.2773 143.168C37.3086 143.24 37.3242 143.317 37.3242 143.399V143.941H36.7236V143.399H34.6846V144.601H36.7236C36.8057 144.601 36.8828 144.616 36.9551 144.647C37.0293 144.679 37.0938 144.722 37.1484 144.776C37.2031 144.831 37.2461 144.896 37.2773 144.97C37.3086 145.042 37.3242 145.119 37.3242 145.201V146.399C37.3242 146.481 37.3086 146.56 37.2773 146.634C37.2461 146.706 37.2031 146.77 37.1484 146.824C37.0938 146.879 37.0293 146.922 36.9551 146.953C36.8828 146.984 36.8057 147 36.7236 147H34.626C34.5439 147 34.4658 146.984 34.3916 146.953C34.3193 146.922 34.2559 146.879 34.2012 146.824C34.1465 146.77 34.1035 146.706 34.0723 146.634C34.041 146.56 34.0254 146.481 34.0254 146.399V145.86H34.626V146.399H36.7236V145.201H34.6846ZM39.0088 142.799V147H38.4082V142.799H39.0088ZM43.6904 146.399C43.6904 146.481 43.6748 146.56 43.6436 146.634C43.6123 146.706 43.5693 146.77 43.5146 146.824C43.46 146.879 43.3955 146.922 43.3213 146.953C43.249 146.984 43.1719 147 43.0898 147H40.6904C40.6084 147 40.5303 146.984 40.4561 146.953C40.3838 146.922 40.3203 146.879 40.2656 146.824C40.2109 146.77 40.168 146.706 40.1367 146.634C40.1055 146.56 40.0898 146.481 40.0898 146.399V143.399C40.0898 143.317 40.1055 143.24 40.1367 143.168C40.168 143.094 40.2109 143.03 40.2656 142.978C40.3203 142.923 40.3838 142.88 40.4561 142.849C40.5303 142.815 40.6084 142.799 40.6904 142.799H43.0898C43.1719 142.799 43.249 142.815 43.3213 142.849C43.3955 142.88 43.46 142.923 43.5146 142.978C43.5693 143.03 43.6123 143.094 43.6436 143.168C43.6748 143.24 43.6904 143.317 43.6904 143.399V146.399ZM40.6904 143.399V146.399H43.0898V143.399H40.6904ZM45.3721 147H44.7715V142.799H45.3721L47.8975 146.057V142.799H48.498V147H47.8975L45.3721 143.742V147ZM55.9336 142.799V147H55.333V143.399H54.6123V142.799H55.9336ZM57.6182 143.399V143.941H57.0176V143.399C57.0176 143.317 57.0332 143.24 57.0645 143.168C57.0957 143.094 57.1387 143.03 57.1934 142.978C57.248 142.923 57.3115 142.88 57.3838 142.849C57.458 142.815 57.5361 142.799 57.6182 142.799H59.5195C59.6016 142.799 59.6787 142.815 59.751 142.849C59.8252 142.88 59.8887 142.923 59.9414 142.978C59.9961 143.03 60.0391 143.094 60.0703 143.168C60.1035 143.24 60.1201 143.317 60.1201 143.399V144.167C60.1201 144.249 60.1123 144.322 60.0967 144.387C60.0811 144.451 60.0557 144.51 60.0205 144.562C59.9873 144.613 59.9443 144.659 59.8916 144.7C59.8389 144.741 59.7744 144.78 59.6982 144.817L57.6182 145.793V146.399H59.5957V145.86H60.1963V147H57.0176V145.896C57.0176 145.813 57.0254 145.74 57.041 145.676C57.0586 145.611 57.084 145.554 57.1172 145.503C57.1504 145.452 57.1934 145.406 57.2461 145.365C57.3008 145.322 57.3643 145.283 57.4365 145.248L59.5195 144.27V143.399H57.6182ZM61.1602 146.124H62.0361V147H61.1602V146.124ZM62.8184 145.729H63.4072V145.951C63.4072 146.109 63.4424 146.226 63.5127 146.3C63.583 146.374 63.6982 146.411 63.8584 146.411H65.0684C65.2285 146.411 65.3438 146.374 65.4141 146.3C65.4844 146.226 65.5195 146.109 65.5195 145.951V145.626C65.5195 145.466 65.4844 145.35 65.4141 145.277C65.3438 145.205 65.2285 145.169 65.0684 145.169H63.8262V144.583H65.0508C65.1973 144.577 65.3018 144.538 65.3643 144.466C65.4287 144.392 65.4609 144.278 65.4609 144.126V143.851C65.4609 143.69 65.4248 143.573 65.3525 143.499C65.2822 143.425 65.168 143.388 65.0098 143.388H63.917C63.7588 143.388 63.6445 143.425 63.5742 143.499C63.5039 143.573 63.4688 143.69 63.4688 143.851V144.073H62.8799V143.821C62.8799 143.14 63.2197 142.799 63.8994 142.799H65.0273C65.373 142.799 65.6289 142.883 65.7949 143.051C65.9629 143.219 66.0469 143.476 66.0469 143.821V143.897C66.0469 144.134 66.0049 144.329 65.9209 144.483C65.8389 144.636 65.7188 144.749 65.5605 144.823C65.7383 144.876 65.874 144.981 65.9678 145.14C66.0615 145.298 66.1084 145.508 66.1084 145.77V145.98C66.1084 146.66 65.7686 147 65.0889 147H63.8408C63.1592 147 62.8184 146.66 62.8184 145.98V145.729ZM66.5889 145.553L68.6602 142.799H69.3662V145.553H69.9316V146.13H69.3662V147H68.7656V146.13H66.5889V145.553ZM68.7656 145.553V143.525L67.2422 145.553H68.7656ZM70.8164 147L72.7002 143.399H70.3535V142.799H73.5938V142.98L71.5107 147H70.8164ZM74.1328 146.124H75.0088V147H74.1328V146.124ZM78.1436 144.583C78.29 144.577 78.3945 144.538 78.457 144.466C78.5195 144.392 78.5508 144.278 78.5508 144.126V143.851C78.5508 143.69 78.5156 143.573 78.4453 143.499C78.375 143.425 78.2607 143.388 78.1025 143.388H77.0098C76.8516 143.388 76.7373 143.425 76.667 143.499C76.5967 143.573 76.5615 143.69 76.5615 143.851V144.126C76.5615 144.278 76.5928 144.392 76.6553 144.466C76.7197 144.538 76.8242 144.577 76.9688 144.583H78.1436ZM78.1611 146.411C78.3213 146.411 78.4365 146.374 78.5068 146.3C78.5771 146.226 78.6123 146.109 78.6123 145.951V145.626C78.6123 145.466 78.5771 145.35 78.5068 145.277C78.4365 145.205 78.3213 145.169 78.1611 145.169H76.9512C76.791 145.169 76.6758 145.205 76.6055 145.277C76.5352 145.35 76.5 145.466 76.5 145.626V145.951C76.5 146.109 76.5352 146.226 76.6055 146.3C76.6758 146.374 76.791 146.411 76.9512 146.411H78.1611ZM76.9336 147C76.252 147 75.9111 146.66 75.9111 145.98V145.77C75.9111 145.508 75.958 145.298 76.0518 145.14C76.1455 144.981 76.2812 144.876 76.459 144.823C76.3008 144.749 76.1797 144.636 76.0957 144.483C76.0137 144.329 75.9727 144.134 75.9727 143.897V143.821C75.9727 143.14 76.3125 142.799 76.9922 142.799H78.1201C78.7998 142.799 79.1396 143.14 79.1396 143.821V143.897C79.1396 144.134 79.0977 144.329 79.0137 144.483C78.9316 144.636 78.8115 144.749 78.6533 144.823C78.8311 144.876 78.9668 144.981 79.0605 145.14C79.1543 145.298 79.2012 145.508 79.2012 145.77V145.98C79.2012 146.66 78.8613 147 78.1816 147H76.9336ZM83.2822 146.399C83.2822 146.481 83.2666 146.56 83.2354 146.634C83.2041 146.706 83.1611 146.77 83.1064 146.824C83.0518 146.879 82.9873 146.922 82.9131 146.953C82.8408 146.984 82.7637 147 82.6816 147H80.7627C80.6807 147 80.6025 146.984 80.5283 146.953C80.4561 146.922 80.3926 146.879 80.3379 146.824C80.2832 146.77 80.2402 146.706 80.209 146.634C80.1777 146.56 80.1621 146.481 80.1621 146.399V145.86H80.7627V146.399H82.6816V145.201H80.7627C80.6807 145.201 80.6025 145.186 80.5283 145.154C80.4561 145.121 80.3926 145.078 80.3379 145.025C80.2832 144.971 80.2402 144.907 80.209 144.835C80.1777 144.761 80.1621 144.683 80.1621 144.601V143.399C80.1621 143.317 80.1777 143.24 80.209 143.168C80.2402 143.094 80.2832 143.03 80.3379 142.978C80.3926 142.923 80.4561 142.88 80.5283 142.849C80.6025 142.815 80.6807 142.799 80.7627 142.799H82.6816C82.7637 142.799 82.8408 142.815 82.9131 142.849C82.9873 142.88 83.0518 142.923 83.1064 142.978C83.1611 143.03 83.2041 143.094 83.2354 143.168C83.2666 143.24 83.2822 143.317 83.2822 143.399V146.399ZM82.6816 144.601V143.399H80.7627V144.601H82.6816ZM86.2236 142.799L87.8438 147H87.2432L86.8711 146.033H84.9756L84.6035 147H84.0029L85.623 142.799H86.2236ZM85.2041 145.433H86.6396L85.9248 143.581L85.2041 145.433Z" fill="#FF009D"/>
<path d="M22.5 149.799V154H21.8994V150.399H21.1787V149.799H22.5ZM24.1846 150.399V150.941H23.584V150.399C23.584 150.317 23.5996 150.24 23.6309 150.168C23.6621 150.094 23.7051 150.03 23.7598 149.978C23.8145 149.923 23.8779 149.88 23.9502 149.849C24.0244 149.815 24.1025 149.799 24.1846 149.799H26.0859C26.168 149.799 26.2451 149.815 26.3174 149.849C26.3916 149.88 26.4551 149.923 26.5078 149.978C26.5625 150.03 26.6055 150.094 26.6367 150.168C26.6699 150.24 26.6865 150.317 26.6865 150.399V151.167C26.6865 151.249 26.6787 151.322 26.6631 151.387C26.6475 151.451 26.6221 151.51 26.5869 151.562C26.5537 151.613 26.5107 151.659 26.458 151.7C26.4053 151.741 26.3408 151.78 26.2646 151.817L24.1846 152.793V153.399H26.1621V152.86H26.7627V154H23.584V152.896C23.584 152.813 23.5918 152.74 23.6074 152.676C23.625 152.611 23.6504 152.554 23.6836 152.503C23.7168 152.452 23.7598 152.406 23.8125 152.365C23.8672 152.322 23.9307 152.283 24.0029 152.248L26.0859 151.27V150.399H24.1846ZM27.5449 152.729H28.1338V152.951C28.1338 153.109 28.1689 153.226 28.2393 153.3C28.3096 153.374 28.4248 153.411 28.585 153.411H29.7949C29.9551 153.411 30.0703 153.374 30.1406 153.3C30.2109 153.226 30.2461 153.109 30.2461 152.951V152.626C30.2461 152.466 30.2109 152.35 30.1406 152.277C30.0703 152.205 29.9551 152.169 29.7949 152.169H28.5527V151.583H29.7773C29.9238 151.577 30.0283 151.538 30.0908 151.466C30.1553 151.392 30.1875 151.278 30.1875 151.126V150.851C30.1875 150.69 30.1514 150.573 30.0791 150.499C30.0088 150.425 29.8945 150.388 29.7363 150.388H28.6436C28.4854 150.388 28.3711 150.425 28.3008 150.499C28.2305 150.573 28.1953 150.69 28.1953 150.851V151.073H27.6064V150.821C27.6064 150.14 27.9463 149.799 28.626 149.799H29.7539C30.0996 149.799 30.3555 149.883 30.5215 150.051C30.6895 150.219 30.7734 150.476 30.7734 150.821V150.897C30.7734 151.134 30.7314 151.329 30.6475 151.483C30.5654 151.636 30.4453 151.749 30.2871 151.823C30.4648 151.876 30.6006 151.981 30.6943 152.14C30.7881 152.298 30.835 152.508 30.835 152.77V152.98C30.835 153.66 30.4951 154 29.8154 154H28.5674C27.8857 154 27.5449 153.66 27.5449 152.98V152.729ZM35.874 150.399V150.941H35.2734V150.399C35.2734 150.317 35.2891 150.24 35.3203 150.168C35.3516 150.094 35.3945 150.03 35.4492 149.978C35.5039 149.923 35.5674 149.88 35.6396 149.849C35.7139 149.815 35.792 149.799 35.874 149.799H37.7754C37.8574 149.799 37.9346 149.815 38.0068 149.849C38.0811 149.88 38.1445 149.923 38.1973 149.978C38.252 150.03 38.2949 150.094 38.3262 150.168C38.3594 150.24 38.376 150.317 38.376 150.399V151.167C38.376 151.249 38.3682 151.322 38.3525 151.387C38.3369 151.451 38.3115 151.51 38.2764 151.562C38.2432 151.613 38.2002 151.659 38.1475 151.7C38.0947 151.741 38.0303 151.78 37.9541 151.817L35.874 152.793V153.399H37.8516V152.86H38.4521V154H35.2734V152.896C35.2734 152.813 35.2812 152.74 35.2969 152.676C35.3145 152.611 35.3398 152.554 35.373 152.503C35.4062 152.452 35.4492 152.406 35.502 152.365C35.5566 152.322 35.6201 152.283 35.6924 152.248L37.7754 151.27V150.399H35.874ZM40.4355 149.799V154H39.835V150.399H39.1143V149.799H40.4355ZM41.3379 152.729H41.9268V152.951C41.9268 153.109 41.9619 153.226 42.0322 153.3C42.1025 153.374 42.2178 153.411 42.3779 153.411H43.5879C43.748 153.411 43.8633 153.374 43.9336 153.3C44.0039 153.226 44.0391 153.109 44.0391 152.951V152.626C44.0391 152.466 44.0039 152.35 43.9336 152.277C43.8633 152.205 43.748 152.169 43.5879 152.169H42.3457V151.583H43.5703C43.7168 151.577 43.8213 151.538 43.8838 151.466C43.9482 151.392 43.9805 151.278 43.9805 151.126V150.851C43.9805 150.69 43.9443 150.573 43.8721 150.499C43.8018 150.425 43.6875 150.388 43.5293 150.388H42.4365C42.2783 150.388 42.1641 150.425 42.0938 150.499C42.0234 150.573 41.9883 150.69 41.9883 150.851V151.073H41.3994V150.821C41.3994 150.14 41.7393 149.799 42.4189 149.799H43.5469C43.8926 149.799 44.1484 149.883 44.3145 150.051C44.4824 150.219 44.5664 150.476 44.5664 150.821V150.897C44.5664 151.134 44.5244 151.329 44.4404 151.483C44.3584 151.636 44.2383 151.749 44.0801 151.823C44.2578 151.876 44.3936 151.981 44.4873 152.14C44.5811 152.298 44.6279 152.508 44.6279 152.77V152.98C44.6279 153.66 44.2881 154 43.6084 154H42.3604C41.6787 154 41.3379 153.66 41.3379 152.98V152.729ZM45.4688 152.02H46.8721V152.597H45.4688V152.02ZM47.4756 152.553L49.5469 149.799H50.2529V152.553H50.8184V153.13H50.2529V154H49.6523V153.13H47.4756V152.553ZM49.6523 152.553V150.525L48.1289 152.553H49.6523ZM52.5 149.799V154H51.8994V150.399H51.1787V149.799H52.5ZM56.5723 152.98C56.5664 153.322 56.4805 153.578 56.3145 153.748C56.1484 153.916 55.8945 154 55.5527 154H54.4248C53.7432 154 53.4023 153.66 53.4023 152.98V152.729H53.9912V152.951C53.9912 153.109 54.0264 153.226 54.0967 153.3C54.167 153.374 54.2822 153.411 54.4424 153.411H55.5322C55.6924 153.411 55.8076 153.374 55.8779 153.3C55.9482 153.226 55.9834 153.109 55.9834 152.951V152.386C55.9834 152.228 55.9482 152.112 55.8779 152.04C55.8076 151.966 55.6924 151.929 55.5322 151.929H53.5225V149.799H56.4639V150.399H54.123V151.343H55.5527C55.8965 151.343 56.1523 151.427 56.3203 151.595C56.4883 151.761 56.5723 152.017 56.5723 152.362V152.98Z" fill="#FF009D"/>
<path fill-rule="evenodd" clip-rule="evenodd" d="M77.5 13C43.5212 13 16 40.5212 16 74.5C16 101.714 33.6044 124.699 58.0506 132.848C61.1256 133.386 62.2787 131.541 62.2787 129.927C62.2787 128.466 62.2019 123.623 62.2019 118.473C46.75 121.317 42.7525 114.706 41.5225 111.246C40.8306 109.478 37.8325 104.02 35.2188 102.559C33.0662 101.406 29.9912 98.5619 35.1419 98.485C39.985 98.4081 43.4444 102.944 44.5975 104.789C50.1325 114.091 58.9731 111.477 62.5094 109.863C63.0475 105.865 64.6619 103.174 66.43 101.637C52.7462 100.099 38.4475 94.795 38.4475 71.2712C38.4475 64.5831 40.8306 59.0481 44.7513 54.7431C44.1363 53.2056 41.9837 46.9019 45.3662 38.4456C45.3662 38.4456 50.5169 36.8313 62.2787 44.7494C67.1987 43.3656 72.4263 42.6737 77.6538 42.6737C82.8813 42.6737 88.1088 43.3656 93.0288 44.7494C104.791 36.7544 109.941 38.4456 109.941 38.4456C113.324 46.9019 111.171 53.2056 110.556 54.7431C114.477 59.0481 116.86 64.5062 116.86 71.2712C116.86 94.8719 102.484 100.099 88.8006 101.637C91.03 103.559 92.9519 107.249 92.9519 113.014C92.9519 121.24 92.875 127.851 92.875 129.927C92.875 131.541 94.0281 133.463 97.1031 132.848C121.396 124.699 139 101.637 139 74.5C139 40.5212 111.479 13 77.5 13Z" fill="#FF009D"/>
</svg>
