<svg width="146" height="136" viewBox="0 0 146 136" fill="none" xmlns="http://www.w3.org/2000/svg">
<path fill-rule="evenodd" clip-rule="evenodd" d="M43.5 0H68H78H102.5L105.5 3V12H126.5V3L129.5 0H146V124L140 130H126V124H107V130L101 136H78H68H45L39 130V124H20V130H6L0 124V0H16.5L19.5 3V12H40.5V3L43.5 0ZM65 49.5H73H81V19H91L107 35V49.5L117 59.5V82L107.5 91.5H104.5V99.5L93 111V116L87 122H73H59L53 116V111L41.5 99.5V91.5H38.5L29 82V59.5L39 49.5V35L55 19H65V49.5ZM121 94H125V103H134V107H125V116H121V107H112V103H121V94Z" fill="#FF009D"/>
<path d="M137.536 22.4643L125.464 34.5357M125 22H138V35H125V22Z" stroke="#FF009D"/>
<path d="M134 41.1992L136.801 40.1191L136.801 40.5488L134.496 41.4199L136.801 42.293L136.801 42.7207L134 41.6406L134 41.1992ZM136.801 43.1992L136.801 45.2402L136.4 45.2402L136.4 43.5996L135.6 43.5996L135.6 45L135.199 45L135.199 43.5996L134.4 43.5996L134.4 45.2402L134 45.2402L134 43.1992L136.801 43.1992ZM135.801 48.0527C135.41 48.0527 135.187 47.8861 135.133 47.5527L134 48.0801L134 47.6367L135.119 47.1172L135.119 46.2402L134 46.2402L134 45.8398L136.801 45.8398L136.801 47.373C136.801 47.8262 136.574 48.0527 136.119 48.0527L135.801 48.0527ZM135.52 46.2402L135.52 47.3516C135.52 47.4583 135.543 47.5352 135.59 47.582C135.637 47.6289 135.714 47.6523 135.82 47.6523L136.1 47.6523C136.206 47.6523 136.283 47.6289 136.33 47.582C136.377 47.5352 136.4 47.4583 136.4 47.3516L136.4 46.2402L135.52 46.2402ZM135.199 49.123C135.199 49.0684 135.21 49.0163 135.23 48.9668C135.253 48.9186 135.281 48.8763 135.316 48.8398C135.353 48.8034 135.395 48.7747 135.443 48.7539C135.493 48.7331 135.545 48.7227 135.6 48.7227L136.4 48.7227C136.455 48.7227 136.507 48.7331 136.555 48.7539C136.604 48.7747 136.646 48.8034 136.682 48.8398C136.718 48.8763 136.747 48.9186 136.768 48.9668C136.79 49.0163 136.801 49.0684 136.801 49.123L136.801 50.4824C136.801 50.5371 136.79 50.5885 136.768 50.6367C136.747 50.6862 136.718 50.7292 136.682 50.7656C136.646 50.8021 136.604 50.8307 136.555 50.8516C136.507 50.8724 136.455 50.8828 136.4 50.8828L136.039 50.8828L136.039 50.4824L136.4 50.4824L136.4 49.123L135.6 49.123L135.6 50.4824C135.6 50.5371 135.589 50.5885 135.568 50.6367C135.548 50.6862 135.519 50.7292 135.482 50.7656C135.446 50.8021 135.403 50.8307 135.354 50.8516C135.305 50.8724 135.254 50.8828 135.199 50.8828L134.4 50.8828C134.346 50.8828 134.294 50.8724 134.244 50.8516C134.196 50.8307 134.154 50.8021 134.117 50.7656C134.081 50.7292 134.052 50.6862 134.031 50.6367C134.01 50.5885 134 50.5371 134 50.4824L134 49.084C134 49.0293 134.01 48.9772 134.031 48.9277C134.052 48.8796 134.081 48.8372 134.117 48.8008C134.154 48.7643 134.196 48.7357 134.244 48.7148C134.294 48.694 134.346 48.6836 134.4 48.6836L134.76 48.6836L134.76 49.084L134.4 49.084L134.4 50.4824L135.199 50.4824L135.199 49.123ZM136.801 52.0059L134 52.0059L134 51.6055L136.801 51.6055L136.801 52.0059ZM134.4 55.127C134.346 55.127 134.294 55.1165 134.244 55.0957C134.196 55.0749 134.154 55.0462 134.117 55.0098C134.081 54.9733 134.052 54.9303 134.031 54.8809C134.01 54.8327 134 54.7812 134 54.7266L134 53.127C134 53.0723 134.01 53.0202 134.031 52.9707C134.052 52.9225 134.081 52.8802 134.117 52.8437C134.154 52.8073 134.196 52.7786 134.244 52.7578C134.294 52.737 134.346 52.7266 134.4 52.7266L136.4 52.7266C136.455 52.7266 136.507 52.737 136.555 52.7578C136.604 52.7786 136.646 52.8073 136.682 52.8437C136.718 52.8802 136.747 52.9225 136.768 52.9707C136.79 53.0202 136.801 53.0723 136.801 53.127L136.801 54.7266C136.801 54.7812 136.79 54.8327 136.768 54.8809C136.747 54.9303 136.718 54.9733 136.682 55.0098C136.646 55.0462 136.604 55.0749 136.555 55.0957C136.507 55.1165 136.455 55.127 136.4 55.127L134.4 55.127ZM136.4 53.127L134.4 53.127L134.4 54.7266L136.4 54.7266L136.4 53.127ZM134 56.248L134 55.8477L136.801 55.8477L136.801 56.248L134.629 57.9316L136.801 57.9316L136.801 58.332L134 58.332L134 57.9316L136.172 56.248L134 56.248ZM136.801 63.2891L134 63.2891L134 62.8887L136.4 62.8887L136.4 62.4082L136.801 62.4082L136.801 63.2891ZM136.4 64.4121L136.039 64.4121L136.039 64.0117L136.4 64.0117C136.455 64.0117 136.507 64.0221 136.555 64.043C136.604 64.0638 136.646 64.0924 136.682 64.1289C136.718 64.1654 136.747 64.2077 136.768 64.2559C136.79 64.3053 136.801 64.3574 136.801 64.4121L136.801 65.6797C136.801 65.7344 136.79 65.7858 136.768 65.834C136.747 65.8835 136.718 65.9258 136.682 65.9609C136.646 65.9974 136.604 66.026 136.555 66.0469C136.507 66.069 136.455 66.0801 136.4 66.0801L135.889 66.0801C135.834 66.0801 135.785 66.0749 135.742 66.0645C135.699 66.054 135.66 66.0371 135.625 66.0137C135.591 65.9915 135.561 65.9629 135.533 65.9277C135.506 65.8926 135.48 65.8496 135.455 65.7988L134.805 64.4121L134.4 64.4121L134.4 65.7305L134.76 65.7305L134.76 66.1309L134 66.1309L134 64.0117L134.736 64.0117C134.791 64.0117 134.84 64.0169 134.883 64.0273C134.926 64.0391 134.964 64.056 134.998 64.0781C135.032 64.1003 135.062 64.1289 135.09 64.1641C135.118 64.2005 135.145 64.2428 135.168 64.291L135.82 65.6797L136.4 65.6797L136.4 64.4121ZM134.584 66.7734L134.584 67.3574L134 67.3574L134 66.7734L134.584 66.7734ZM134.848 67.8789L134.848 68.2715L134.699 68.2715C134.594 68.2715 134.516 68.2949 134.467 68.3418C134.417 68.3887 134.393 68.4655 134.393 68.5723L134.393 69.3789C134.393 69.4857 134.417 69.5625 134.467 69.6094C134.516 69.6562 134.594 69.6797 134.699 69.6797L134.916 69.6797C135.023 69.6797 135.1 69.6562 135.148 69.6094C135.197 69.5625 135.221 69.4857 135.221 69.3789L135.221 68.5508L135.611 68.5508L135.611 69.3672C135.615 69.4648 135.641 69.5345 135.689 69.5762C135.739 69.6191 135.814 69.6406 135.916 69.6406L136.1 69.6406C136.206 69.6406 136.285 69.6165 136.334 69.5684C136.383 69.5215 136.408 69.4453 136.408 69.3398L136.408 68.6113C136.408 68.5059 136.383 68.4297 136.334 68.3828C136.285 68.3359 136.206 68.3125 136.1 68.3125L135.951 68.3125L135.951 67.9199L136.119 67.9199C136.574 67.9199 136.801 68.1465 136.801 68.5996L136.801 69.3516C136.801 69.582 136.745 69.7526 136.633 69.8633C136.521 69.9753 136.35 70.0312 136.119 70.0312L136.068 70.0312C135.911 70.0312 135.781 70.0033 135.678 69.9473C135.576 69.8926 135.501 69.8125 135.451 69.707C135.416 69.8255 135.346 69.916 135.24 69.9785C135.135 70.041 134.995 70.0723 134.82 70.0723L134.68 70.0723C134.227 70.0723 134 69.8457 134 69.3926L134 68.5605C134 68.1061 134.227 67.8789 134.68 67.8789L134.848 67.8789ZM134.965 70.3926L136.801 71.7734L136.801 72.2441L134.965 72.2441L134.965 72.6211L134.58 72.6211L134.58 72.2441L134 72.2441L134 71.8437L134.58 71.8437L134.58 70.3926L134.965 70.3926ZM134.965 71.8437L136.316 71.8437L134.965 70.8281L134.965 71.8437ZM134 73.2109L136.4 74.4668L136.4 72.9023L136.801 72.9023L136.801 75.0625L136.68 75.0625L134 73.6738L134 73.2109ZM134.584 75.4219L134.584 76.0059L134 76.0059L134 75.4219L134.584 75.4219ZM135.611 78.0957C135.615 78.1934 135.641 78.263 135.689 78.3047C135.739 78.3464 135.814 78.3672 135.916 78.3672L136.1 78.3672C136.206 78.3672 136.285 78.3437 136.334 78.2969C136.383 78.25 136.408 78.1738 136.408 78.0684L136.408 77.3398C136.408 77.2344 136.383 77.1582 136.334 77.1113C136.285 77.0645 136.206 77.041 136.1 77.041L135.916 77.041C135.814 77.041 135.739 77.0618 135.689 77.1035C135.641 77.1465 135.615 77.2161 135.611 77.3125L135.611 78.0957ZM134.393 78.1074C134.393 78.2142 134.417 78.291 134.467 78.3379C134.516 78.3848 134.594 78.4082 134.699 78.4082L134.916 78.4082C135.023 78.4082 135.1 78.3848 135.148 78.3379C135.197 78.291 135.221 78.2142 135.221 78.1074L135.221 77.3008C135.221 77.194 135.197 77.1172 135.148 77.0703C135.1 77.0234 135.023 77 134.916 77L134.699 77C134.594 77 134.516 77.0234 134.467 77.0703C134.417 77.1172 134.393 77.194 134.393 77.3008L134.393 78.1074ZM134 77.2891C134 76.8346 134.227 76.6074 134.68 76.6074L134.82 76.6074C134.995 76.6074 135.135 76.6387 135.24 76.7012C135.346 76.7637 135.416 76.8542 135.451 76.9727C135.501 76.8672 135.576 76.7865 135.678 76.7305C135.781 76.6758 135.911 76.6484 136.068 76.6484L136.119 76.6484C136.574 76.6484 136.801 76.875 136.801 77.3281L136.801 78.0801C136.801 78.5332 136.574 78.7598 136.119 78.7598L136.068 78.7598C135.911 78.7598 135.781 78.7318 135.678 78.6758C135.576 78.6211 135.501 78.541 135.451 78.4355C135.416 78.554 135.346 78.6445 135.24 78.707C135.135 78.7695 134.995 78.8008 134.82 78.8008L134.68 78.8008C134.227 78.8008 134 78.5742 134 78.1211L134 77.2891ZM134.4 81.5215C134.346 81.5215 134.294 81.5111 134.244 81.4902C134.196 81.4694 134.154 81.4408 134.117 81.4043C134.081 81.3678 134.052 81.3249 134.031 81.2754C134.01 81.2272 134 81.1758 134 81.1211L134 79.8418C134 79.7871 134.01 79.735 134.031 79.6855C134.052 79.6374 134.081 79.5951 134.117 79.5586C134.154 79.5221 134.196 79.4935 134.244 79.4727C134.294 79.4518 134.346 79.4414 134.4 79.4414L134.76 79.4414L134.76 79.8418L134.4 79.8418L134.4 81.1211L135.199 81.1211L135.199 79.8418C135.199 79.7871 135.21 79.735 135.23 79.6855C135.253 79.6374 135.281 79.5951 135.316 79.5586C135.353 79.5221 135.395 79.4935 135.443 79.4727C135.493 79.4518 135.545 79.4414 135.6 79.4414L136.4 79.4414C136.455 79.4414 136.507 79.4518 136.555 79.4727C136.604 79.4935 136.646 79.5221 136.682 79.5586C136.718 79.5951 136.747 79.6374 136.768 79.6855C136.79 79.735 136.801 79.7871 136.801 79.8418L136.801 81.1211C136.801 81.1758 136.79 81.2272 136.768 81.2754C136.747 81.3249 136.718 81.3678 136.682 81.4043C136.646 81.4408 136.604 81.4694 136.555 81.4902C136.507 81.5111 136.455 81.5215 136.4 81.5215L134.4 81.5215ZM135.6 81.1211L136.4 81.1211L136.4 79.8418L135.6 79.8418L135.6 81.1211ZM136.801 83.4824L134 84.5625L134 84.1621L134.645 83.9141L134.645 82.6504L134 82.4023L134 82.002L136.801 83.082L136.801 83.4824ZM135.045 82.8027L135.045 83.7598L136.279 83.2832L135.045 82.8027Z" fill="#FF009D"/>
<path d="M130.801 41L128 41L128 40.5996L130.4 40.5996L130.4 40.1191L130.801 40.1191L130.801 41ZM130.4 42.123L130.039 42.123L130.039 41.7227L130.4 41.7227C130.455 41.7227 130.507 41.7331 130.555 41.7539C130.604 41.7747 130.646 41.8034 130.682 41.8398C130.718 41.8763 130.747 41.9186 130.768 41.9668C130.79 42.0163 130.801 42.0684 130.801 42.123L130.801 43.3906C130.801 43.4453 130.79 43.4967 130.768 43.5449C130.747 43.5944 130.718 43.6367 130.682 43.6719C130.646 43.7083 130.604 43.737 130.555 43.7578C130.507 43.7799 130.455 43.791 130.4 43.791L129.889 43.791C129.834 43.791 129.785 43.7858 129.742 43.7754C129.699 43.765 129.66 43.748 129.625 43.7246C129.591 43.7025 129.561 43.6738 129.533 43.6387C129.506 43.6035 129.48 43.5605 129.455 43.5098L128.805 42.123L128.4 42.123L128.4 43.4414L128.76 43.4414L128.76 43.8418L128 43.8418L128 41.7227L128.736 41.7227C128.791 41.7227 128.84 41.7279 128.883 41.7383C128.926 41.75 128.964 41.7669 128.998 41.7891C129.032 41.8112 129.062 41.8398 129.09 41.875C129.118 41.9115 129.145 41.9538 129.168 42.002L129.82 43.3906L130.4 43.3906L130.4 42.123ZM128.848 44.3633L128.848 44.7559L128.699 44.7559C128.594 44.7559 128.516 44.7793 128.467 44.8262C128.417 44.873 128.393 44.9499 128.393 45.0566L128.393 45.8633C128.393 45.9701 128.417 46.0469 128.467 46.0937C128.516 46.1406 128.594 46.1641 128.699 46.1641L128.916 46.1641C129.023 46.1641 129.1 46.1406 129.148 46.0937C129.197 46.0469 129.221 45.9701 129.221 45.8633L129.221 45.0352L129.611 45.0352L129.611 45.8516C129.615 45.9492 129.641 46.0189 129.689 46.0605C129.739 46.1035 129.814 46.125 129.916 46.125L130.1 46.125C130.206 46.125 130.285 46.1009 130.334 46.0527C130.383 46.0059 130.408 45.9297 130.408 45.8242L130.408 45.0957C130.408 44.9902 130.383 44.9141 130.334 44.8672C130.285 44.8203 130.206 44.7969 130.1 44.7969L129.951 44.7969L129.951 44.4043L130.119 44.4043C130.574 44.4043 130.801 44.6309 130.801 45.084L130.801 45.8359C130.801 46.0664 130.745 46.237 130.633 46.3477C130.521 46.4596 130.35 46.5156 130.119 46.5156L130.068 46.5156C129.911 46.5156 129.781 46.4876 129.678 46.4316C129.576 46.377 129.501 46.2969 129.451 46.1914C129.416 46.3099 129.346 46.4004 129.24 46.4629C129.135 46.5254 128.995 46.5566 128.82 46.5566L128.68 46.5566C128.227 46.5566 128 46.3301 128 45.877L128 45.0449C128 44.5905 128.227 44.3633 128.68 44.3633L128.848 44.3633ZM130.4 49.916L130.039 49.916L130.039 49.5156L130.4 49.5156C130.455 49.5156 130.507 49.526 130.555 49.5469C130.604 49.5677 130.646 49.5964 130.682 49.6328C130.718 49.6693 130.747 49.7116 130.768 49.7598C130.79 49.8092 130.801 49.8613 130.801 49.916L130.801 51.1836C130.801 51.2383 130.79 51.2897 130.768 51.3379C130.747 51.3874 130.718 51.4297 130.682 51.4648C130.646 51.5013 130.604 51.5299 130.555 51.5508C130.507 51.5729 130.455 51.584 130.4 51.584L129.889 51.584C129.834 51.584 129.785 51.5788 129.742 51.5684C129.699 51.5579 129.66 51.541 129.625 51.5176C129.591 51.4954 129.561 51.4668 129.533 51.4316C129.506 51.3965 129.48 51.3535 129.455 51.3027L128.805 49.916L128.4 49.916L128.4 51.2344L128.76 51.2344L128.76 51.6348L128 51.6348L128 49.5156L128.736 49.5156C128.791 49.5156 128.84 49.5208 128.883 49.5312C128.926 49.543 128.964 49.5599 128.998 49.582C129.032 49.6042 129.062 49.6328 129.09 49.668C129.118 49.7044 129.145 49.7467 129.168 49.7949L129.82 51.1836L130.4 51.1836L130.4 49.916ZM130.801 52.957L128 52.957L128 52.5566L130.4 52.5566L130.4 52.0762L130.801 52.0762L130.801 52.957ZM128.848 53.5586L128.848 53.9512L128.699 53.9512C128.594 53.9512 128.516 53.9746 128.467 54.0215C128.417 54.0684 128.393 54.1452 128.393 54.252L128.393 55.0586C128.393 55.1654 128.417 55.2422 128.467 55.2891C128.516 55.3359 128.594 55.3594 128.699 55.3594L128.916 55.3594C129.023 55.3594 129.1 55.3359 129.148 55.2891C129.197 55.2422 129.221 55.1654 129.221 55.0586L129.221 54.2305L129.611 54.2305L129.611 55.0469C129.615 55.1445 129.641 55.2142 129.689 55.2559C129.739 55.2988 129.814 55.3203 129.916 55.3203L130.1 55.3203C130.206 55.3203 130.285 55.2962 130.334 55.248C130.383 55.2012 130.408 55.125 130.408 55.0195L130.408 54.291C130.408 54.1855 130.383 54.1094 130.334 54.0625C130.285 54.0156 130.206 53.9922 130.1 53.9922L129.951 53.9922L129.951 53.5996L130.119 53.5996C130.574 53.5996 130.801 53.8262 130.801 54.2793L130.801 55.0312C130.801 55.2617 130.745 55.4323 130.633 55.543C130.521 55.6549 130.35 55.7109 130.119 55.7109L130.068 55.7109C129.911 55.7109 129.781 55.6829 129.678 55.627C129.576 55.5723 129.501 55.4922 129.451 55.3867C129.416 55.5052 129.346 55.5957 129.24 55.6582C129.135 55.7207 128.995 55.752 128.82 55.752L128.68 55.752C128.227 55.752 128 55.5254 128 55.0723L128 54.2402C128 53.7858 128.227 53.5586 128.68 53.5586L128.848 53.5586ZM129.32 56.3125L129.32 57.248L128.936 57.248L128.936 56.3125L129.32 56.3125ZM128.965 57.6504L130.801 59.0312L130.801 59.502L128.965 59.502L128.965 59.8789L128.58 59.8789L128.58 59.502L128 59.502L128 59.1016L128.58 59.1016L128.58 57.6504L128.965 57.6504ZM128.965 59.1016L130.316 59.1016L128.965 58.0859L128.965 59.1016ZM130.801 61L128 61L128 60.5996L130.4 60.5996L130.4 60.1191L130.801 60.1191L130.801 61ZM128.68 63.7148C128.452 63.7109 128.281 63.6536 128.168 63.543C128.056 63.4323 128 63.263 128 63.0352L128 62.2832C128 61.8288 128.227 61.6016 128.68 61.6016L128.848 61.6016L128.848 61.9941L128.699 61.9941C128.594 61.9941 128.516 62.0176 128.467 62.0645C128.417 62.1113 128.393 62.1882 128.393 62.2949L128.393 63.0215C128.393 63.1283 128.417 63.2051 128.467 63.252C128.516 63.2988 128.594 63.3223 128.699 63.3223L129.076 63.3223C129.182 63.3223 129.258 63.2988 129.307 63.252C129.356 63.2051 129.381 63.1283 129.381 63.0215L129.381 61.6816L130.801 61.6816L130.801 63.6426L130.4 63.6426L130.4 62.082L129.771 62.082L129.771 63.0352C129.771 63.2643 129.715 63.4349 129.604 63.5469C129.493 63.6589 129.322 63.7148 129.092 63.7148L128.68 63.7148Z" fill="#FF009D"/>
<path fill-rule="evenodd" clip-rule="evenodd" d="M38.5 61.5V66H41V78H38V82L42.5 86.5H71V82H78.5V86.5H85.5V82H93V86.5H105L109.5 82V61L104.5 56H96.5V63H83V56H44L38.5 61.5ZM66 71.5C66 76.1944 62.1944 80 57.5 80C52.8056 80 49 76.1944 49 71.5C49 66.8056 52.8056 63 57.5 63C62.1944 63 66 66.8056 66 71.5ZM100 72H76V75H100V72Z" fill="#FF009D"/>
</svg>
