<svg width="170" height="156" viewBox="0 0 170 156" fill="none" xmlns="http://www.w3.org/2000/svg">
<path d="M0 6.11959e-07H6V14H0V6.11959e-07Z" fill="#FF009D"/>
<path d="M0 6V6.11959e-07L14 0V6L0 6Z" fill="#FF009D"/>
<path d="M0 156H6V142H0V156Z" fill="#FF009D"/>
<path d="M0 150V156L14 156V150L0 150Z" fill="#FF009D"/>
<path d="M170 6.11959e-07H164V14H170V6.11959e-07Z" fill="#FF009D"/>
<path d="M170 6V6.11959e-07L156 0V6L170 6Z" fill="#FF009D"/>
<path d="M170 156H164V142H170V156Z" fill="#FF009D"/>
<path d="M170 150V156L156 156V150L170 150Z" fill="#FF009D"/>
<path fill-rule="evenodd" clip-rule="evenodd" d="M146 10H10V146H146V103L160 89V19L151 10H146ZM68.3027 76.2363C67.9382 77.7402 67.7559 79.4492 67.7559 81.3633V90.6602H81.7012V78.834L99.8164 70.2207C101.548 69.3548 103.029 68.4434 104.26 67.4863C105.536 66.5293 106.561 65.4583 107.336 64.2734C108.111 63.043 108.68 61.6758 109.045 60.1719C109.41 58.668 109.592 56.959 109.592 55.0449V43.0137C109.592 41.0996 109.227 39.2995 108.498 37.6133C107.769 35.8815 106.766 34.4004 105.49 33.1699C104.214 31.8939 102.71 30.8913 100.979 30.1621C99.2923 29.3874 97.4922 29 95.5781 29H62.0137C60.0996 29 58.2767 29.3874 56.5449 30.1621C54.8587 30.8913 53.3776 31.8939 52.1016 33.1699C50.8255 34.4004 49.8229 35.8815 49.0938 37.6133C48.3646 39.2995 48 41.0996 48 43.0137V55.6602H62.0137V43.0137H95.5781V57.5742L77.5312 66.2559C75.8451 67.0762 74.3639 67.9876 73.0879 68.9902C71.8574 69.9473 70.8548 71.0182 70.0801 72.2031C69.3053 73.388 68.7129 74.7324 68.3027 76.2363ZM85.3926 106.588H64.9531V127.027H85.3926V106.588ZM60 71H63V90H60V71ZM127 33H123V41H127V33Z" fill="#FF009D"/>
<path d="M153.536 22.4643L141.464 34.5357M141 22H154V35H141V22Z" stroke="#FF009D"/>
<path d="M150 41.1992L152.801 40.1191L152.801 40.5488L150.496 41.4199L152.801 42.293L152.801 42.7207L150 41.6406L150 41.1992ZM152.801 43.1992L152.801 45.2402L152.4 45.2402L152.4 43.5996L151.6 43.5996L151.6 45L151.199 45L151.199 43.5996L150.4 43.5996L150.4 45.2402L150 45.2402L150 43.1992L152.801 43.1992ZM151.801 48.0527C151.41 48.0527 151.187 47.8861 151.133 47.5527L150 48.0801L150 47.6367L151.119 47.1172L151.119 46.2402L150 46.2402L150 45.8398L152.801 45.8398L152.801 47.373C152.801 47.8262 152.574 48.0527 152.119 48.0527L151.801 48.0527ZM151.52 46.2402L151.52 47.3516C151.52 47.4583 151.543 47.5352 151.59 47.582C151.637 47.6289 151.714 47.6523 151.82 47.6523L152.1 47.6523C152.206 47.6523 152.283 47.6289 152.33 47.582C152.377 47.5352 152.4 47.4583 152.4 47.3516L152.4 46.2402L151.52 46.2402ZM151.199 49.123C151.199 49.0684 151.21 49.0163 151.23 48.9668C151.253 48.9186 151.281 48.8763 151.316 48.8398C151.353 48.8034 151.395 48.7747 151.443 48.7539C151.493 48.7331 151.545 48.7227 151.6 48.7227L152.4 48.7227C152.455 48.7227 152.507 48.7331 152.555 48.7539C152.604 48.7747 152.646 48.8034 152.682 48.8398C152.718 48.8763 152.747 48.9186 152.768 48.9668C152.79 49.0163 152.801 49.0684 152.801 49.123L152.801 50.4824C152.801 50.5371 152.79 50.5885 152.768 50.6367C152.747 50.6862 152.718 50.7292 152.682 50.7656C152.646 50.8021 152.604 50.8307 152.555 50.8516C152.507 50.8724 152.455 50.8828 152.4 50.8828L152.039 50.8828L152.039 50.4824L152.4 50.4824L152.4 49.123L151.6 49.123L151.6 50.4824C151.6 50.5371 151.589 50.5885 151.568 50.6367C151.548 50.6862 151.519 50.7292 151.482 50.7656C151.446 50.8021 151.403 50.8307 151.354 50.8516C151.305 50.8724 151.254 50.8828 151.199 50.8828L150.4 50.8828C150.346 50.8828 150.294 50.8724 150.244 50.8516C150.196 50.8307 150.154 50.8021 150.117 50.7656C150.081 50.7292 150.052 50.6862 150.031 50.6367C150.01 50.5885 150 50.5371 150 50.4824L150 49.084C150 49.0293 150.01 48.9772 150.031 48.9277C150.052 48.8796 150.081 48.8372 150.117 48.8008C150.154 48.7643 150.196 48.7357 150.244 48.7148C150.294 48.694 150.346 48.6836 150.4 48.6836L150.76 48.6836L150.76 49.084L150.4 49.084L150.4 50.4824L151.199 50.4824L151.199 49.123ZM152.801 52.0059L150 52.0059L150 51.6055L152.801 51.6055L152.801 52.0059ZM150.4 55.127C150.346 55.127 150.294 55.1165 150.244 55.0957C150.196 55.0749 150.154 55.0462 150.117 55.0098C150.081 54.9733 150.052 54.9303 150.031 54.8809C150.01 54.8327 150 54.7812 150 54.7266L150 53.127C150 53.0723 150.01 53.0202 150.031 52.9707C150.052 52.9225 150.081 52.8802 150.117 52.8437C150.154 52.8073 150.196 52.7786 150.244 52.7578C150.294 52.737 150.346 52.7266 150.4 52.7266L152.4 52.7266C152.455 52.7266 152.507 52.737 152.555 52.7578C152.604 52.7786 152.646 52.8073 152.682 52.8437C152.718 52.8802 152.747 52.9225 152.768 52.9707C152.79 53.0202 152.801 53.0723 152.801 53.127L152.801 54.7266C152.801 54.7812 152.79 54.8327 152.768 54.8809C152.747 54.9303 152.718 54.9733 152.682 55.0098C152.646 55.0462 152.604 55.0749 152.555 55.0957C152.507 55.1165 152.455 55.127 152.4 55.127L150.4 55.127ZM152.4 53.127L150.4 53.127L150.4 54.7266L152.4 54.7266L152.4 53.127ZM150 56.248L150 55.8477L152.801 55.8477L152.801 56.248L150.629 57.9316L152.801 57.9316L152.801 58.332L150 58.332L150 57.9316L152.172 56.248L150 56.248ZM152.801 63.2891L150 63.2891L150 62.8887L152.4 62.8887L152.4 62.4082L152.801 62.4082L152.801 63.2891ZM152.4 64.4121L152.039 64.4121L152.039 64.0117L152.4 64.0117C152.455 64.0117 152.507 64.0221 152.555 64.043C152.604 64.0638 152.646 64.0924 152.682 64.1289C152.718 64.1654 152.747 64.2077 152.768 64.2559C152.79 64.3053 152.801 64.3574 152.801 64.4121L152.801 65.6797C152.801 65.7344 152.79 65.7858 152.768 65.834C152.747 65.8835 152.718 65.9258 152.682 65.9609C152.646 65.9974 152.604 66.026 152.555 66.0469C152.507 66.069 152.455 66.0801 152.4 66.0801L151.889 66.0801C151.834 66.0801 151.785 66.0749 151.742 66.0645C151.699 66.054 151.66 66.0371 151.625 66.0137C151.591 65.9915 151.561 65.9629 151.533 65.9277C151.506 65.8926 151.48 65.8496 151.455 65.7988L150.805 64.4121L150.4 64.4121L150.4 65.7305L150.76 65.7305L150.76 66.1309L150 66.1309L150 64.0117L150.736 64.0117C150.791 64.0117 150.84 64.0169 150.883 64.0273C150.926 64.0391 150.964 64.056 150.998 64.0781C151.032 64.1003 151.062 64.1289 151.09 64.1641C151.118 64.2005 151.145 64.2428 151.168 64.291L151.82 65.6797L152.4 65.6797L152.4 64.4121ZM150.584 66.7734L150.584 67.3574L150 67.3574L150 66.7734L150.584 66.7734ZM150.848 67.8789L150.848 68.2715L150.699 68.2715C150.594 68.2715 150.516 68.2949 150.467 68.3418C150.417 68.3887 150.393 68.4655 150.393 68.5723L150.393 69.3789C150.393 69.4857 150.417 69.5625 150.467 69.6094C150.516 69.6562 150.594 69.6797 150.699 69.6797L150.916 69.6797C151.023 69.6797 151.1 69.6562 151.148 69.6094C151.197 69.5625 151.221 69.4857 151.221 69.3789L151.221 68.5508L151.611 68.5508L151.611 69.3672C151.615 69.4648 151.641 69.5345 151.689 69.5762C151.739 69.6191 151.814 69.6406 151.916 69.6406L152.1 69.6406C152.206 69.6406 152.285 69.6165 152.334 69.5684C152.383 69.5215 152.408 69.4453 152.408 69.3398L152.408 68.6113C152.408 68.5059 152.383 68.4297 152.334 68.3828C152.285 68.3359 152.206 68.3125 152.1 68.3125L151.951 68.3125L151.951 67.9199L152.119 67.9199C152.574 67.9199 152.801 68.1465 152.801 68.5996L152.801 69.3516C152.801 69.582 152.745 69.7526 152.633 69.8633C152.521 69.9753 152.35 70.0312 152.119 70.0312L152.068 70.0312C151.911 70.0312 151.781 70.0033 151.678 69.9473C151.576 69.8926 151.501 69.8125 151.451 69.707C151.416 69.8255 151.346 69.916 151.24 69.9785C151.135 70.041 150.995 70.0723 150.82 70.0723L150.68 70.0723C150.227 70.0723 150 69.8457 150 69.3926L150 68.5605C150 68.1061 150.227 67.8789 150.68 67.8789L150.848 67.8789ZM150.965 70.3926L152.801 71.7734L152.801 72.2441L150.965 72.2441L150.965 72.6211L150.58 72.6211L150.58 72.2441L150 72.2441L150 71.8437L150.58 71.8437L150.58 70.3926L150.965 70.3926ZM150.965 71.8437L152.316 71.8437L150.965 70.8281L150.965 71.8437ZM150 73.2109L152.4 74.4668L152.4 72.9023L152.801 72.9023L152.801 75.0625L152.68 75.0625L150 73.6738L150 73.2109ZM150.584 75.4219L150.584 76.0059L150 76.0059L150 75.4219L150.584 75.4219ZM151.611 78.0957C151.615 78.1934 151.641 78.263 151.689 78.3047C151.739 78.3464 151.814 78.3672 151.916 78.3672L152.1 78.3672C152.206 78.3672 152.285 78.3437 152.334 78.2969C152.383 78.25 152.408 78.1738 152.408 78.0684L152.408 77.3398C152.408 77.2344 152.383 77.1582 152.334 77.1113C152.285 77.0645 152.206 77.041 152.1 77.041L151.916 77.041C151.814 77.041 151.739 77.0618 151.689 77.1035C151.641 77.1465 151.615 77.2161 151.611 77.3125L151.611 78.0957ZM150.393 78.1074C150.393 78.2142 150.417 78.291 150.467 78.3379C150.516 78.3848 150.594 78.4082 150.699 78.4082L150.916 78.4082C151.023 78.4082 151.1 78.3848 151.148 78.3379C151.197 78.291 151.221 78.2142 151.221 78.1074L151.221 77.3008C151.221 77.194 151.197 77.1172 151.148 77.0703C151.1 77.0234 151.023 77 150.916 77L150.699 77C150.594 77 150.516 77.0234 150.467 77.0703C150.417 77.1172 150.393 77.194 150.393 77.3008L150.393 78.1074ZM150 77.2891C150 76.8346 150.227 76.6074 150.68 76.6074L150.82 76.6074C150.995 76.6074 151.135 76.6387 151.24 76.7012C151.346 76.7637 151.416 76.8542 151.451 76.9727C151.501 76.8672 151.576 76.7865 151.678 76.7305C151.781 76.6758 151.911 76.6484 152.068 76.6484L152.119 76.6484C152.574 76.6484 152.801 76.875 152.801 77.3281L152.801 78.0801C152.801 78.5332 152.574 78.7598 152.119 78.7598L152.068 78.7598C151.911 78.7598 151.781 78.7318 151.678 78.6758C151.576 78.6211 151.501 78.541 151.451 78.4355C151.416 78.554 151.346 78.6445 151.24 78.707C151.135 78.7695 150.995 78.8008 150.82 78.8008L150.68 78.8008C150.227 78.8008 150 78.5742 150 78.1211L150 77.2891ZM150.4 81.5215C150.346 81.5215 150.294 81.5111 150.244 81.4902C150.196 81.4694 150.154 81.4408 150.117 81.4043C150.081 81.3678 150.052 81.3249 150.031 81.2754C150.01 81.2272 150 81.1758 150 81.1211L150 79.8418C150 79.7871 150.01 79.735 150.031 79.6855C150.052 79.6374 150.081 79.5951 150.117 79.5586C150.154 79.5221 150.196 79.4935 150.244 79.4727C150.294 79.4518 150.346 79.4414 150.4 79.4414L150.76 79.4414L150.76 79.8418L150.4 79.8418L150.4 81.1211L151.199 81.1211L151.199 79.8418C151.199 79.7871 151.21 79.735 151.23 79.6855C151.253 79.6374 151.281 79.5951 151.316 79.5586C151.353 79.5221 151.395 79.4935 151.443 79.4727C151.493 79.4518 151.545 79.4414 151.6 79.4414L152.4 79.4414C152.455 79.4414 152.507 79.4518 152.555 79.4727C152.604 79.4935 152.646 79.5221 152.682 79.5586C152.718 79.5951 152.747 79.6374 152.768 79.6855C152.79 79.735 152.801 79.7871 152.801 79.8418L152.801 81.1211C152.801 81.1758 152.79 81.2272 152.768 81.2754C152.747 81.3249 152.718 81.3678 152.682 81.4043C152.646 81.4408 152.604 81.4694 152.555 81.4902C152.507 81.5111 152.455 81.5215 152.4 81.5215L150.4 81.5215ZM151.6 81.1211L152.4 81.1211L152.4 79.8418L151.6 79.8418L151.6 81.1211ZM152.801 83.4824L150 84.5625L150 84.1621L150.645 83.9141L150.645 82.6504L150 82.4023L150 82.002L152.801 83.082L152.801 83.4824ZM151.045 82.8027L151.045 83.7598L152.279 83.2832L151.045 82.8027Z" fill="#FF009D"/>
<path d="M146.801 41L144 41L144 40.5996L146.4 40.5996L146.4 40.1191L146.801 40.1191L146.801 41ZM146.4 42.123L146.039 42.123L146.039 41.7227L146.4 41.7227C146.455 41.7227 146.507 41.7331 146.555 41.7539C146.604 41.7747 146.646 41.8034 146.682 41.8398C146.718 41.8763 146.747 41.9186 146.768 41.9668C146.79 42.0163 146.801 42.0684 146.801 42.123L146.801 43.3906C146.801 43.4453 146.79 43.4967 146.768 43.5449C146.747 43.5944 146.718 43.6367 146.682 43.6719C146.646 43.7083 146.604 43.737 146.555 43.7578C146.507 43.7799 146.455 43.791 146.4 43.791L145.889 43.791C145.834 43.791 145.785 43.7858 145.742 43.7754C145.699 43.765 145.66 43.748 145.625 43.7246C145.591 43.7025 145.561 43.6738 145.533 43.6387C145.506 43.6035 145.48 43.5605 145.455 43.5098L144.805 42.123L144.4 42.123L144.4 43.4414L144.76 43.4414L144.76 43.8418L144 43.8418L144 41.7227L144.736 41.7227C144.791 41.7227 144.84 41.7279 144.883 41.7383C144.926 41.75 144.964 41.7669 144.998 41.7891C145.032 41.8112 145.062 41.8398 145.09 41.875C145.118 41.9115 145.145 41.9538 145.168 42.002L145.82 43.3906L146.4 43.3906L146.4 42.123ZM144.848 44.3633L144.848 44.7559L144.699 44.7559C144.594 44.7559 144.516 44.7793 144.467 44.8262C144.417 44.873 144.393 44.9499 144.393 45.0566L144.393 45.8633C144.393 45.9701 144.417 46.0469 144.467 46.0937C144.516 46.1406 144.594 46.1641 144.699 46.1641L144.916 46.1641C145.023 46.1641 145.1 46.1406 145.148 46.0937C145.197 46.0469 145.221 45.9701 145.221 45.8633L145.221 45.0352L145.611 45.0352L145.611 45.8516C145.615 45.9492 145.641 46.0189 145.689 46.0605C145.739 46.1035 145.814 46.125 145.916 46.125L146.1 46.125C146.206 46.125 146.285 46.1009 146.334 46.0527C146.383 46.0059 146.408 45.9297 146.408 45.8242L146.408 45.0957C146.408 44.9902 146.383 44.9141 146.334 44.8672C146.285 44.8203 146.206 44.7969 146.1 44.7969L145.951 44.7969L145.951 44.4043L146.119 44.4043C146.574 44.4043 146.801 44.6309 146.801 45.084L146.801 45.8359C146.801 46.0664 146.745 46.237 146.633 46.3477C146.521 46.4596 146.35 46.5156 146.119 46.5156L146.068 46.5156C145.911 46.5156 145.781 46.4876 145.678 46.4316C145.576 46.377 145.501 46.2969 145.451 46.1914C145.416 46.3099 145.346 46.4004 145.24 46.4629C145.135 46.5254 144.995 46.5566 144.82 46.5566L144.68 46.5566C144.227 46.5566 144 46.3301 144 45.877L144 45.0449C144 44.5905 144.227 44.3633 144.68 44.3633L144.848 44.3633ZM146.4 49.916L146.039 49.916L146.039 49.5156L146.4 49.5156C146.455 49.5156 146.507 49.526 146.555 49.5469C146.604 49.5677 146.646 49.5964 146.682 49.6328C146.718 49.6693 146.747 49.7116 146.768 49.7598C146.79 49.8092 146.801 49.8613 146.801 49.916L146.801 51.1836C146.801 51.2383 146.79 51.2897 146.768 51.3379C146.747 51.3874 146.718 51.4297 146.682 51.4648C146.646 51.5013 146.604 51.5299 146.555 51.5508C146.507 51.5729 146.455 51.584 146.4 51.584L145.889 51.584C145.834 51.584 145.785 51.5788 145.742 51.5684C145.699 51.5579 145.66 51.541 145.625 51.5176C145.591 51.4954 145.561 51.4668 145.533 51.4316C145.506 51.3965 145.48 51.3535 145.455 51.3027L144.805 49.916L144.4 49.916L144.4 51.2344L144.76 51.2344L144.76 51.6348L144 51.6348L144 49.5156L144.736 49.5156C144.791 49.5156 144.84 49.5208 144.883 49.5312C144.926 49.543 144.964 49.5599 144.998 49.582C145.032 49.6042 145.062 49.6328 145.09 49.668C145.118 49.7044 145.145 49.7467 145.168 49.7949L145.82 51.1836L146.4 51.1836L146.4 49.916ZM146.801 52.957L144 52.957L144 52.5566L146.4 52.5566L146.4 52.0762L146.801 52.0762L146.801 52.957ZM144.848 53.5586L144.848 53.9512L144.699 53.9512C144.594 53.9512 144.516 53.9746 144.467 54.0215C144.417 54.0684 144.393 54.1452 144.393 54.252L144.393 55.0586C144.393 55.1654 144.417 55.2422 144.467 55.2891C144.516 55.3359 144.594 55.3594 144.699 55.3594L144.916 55.3594C145.023 55.3594 145.1 55.3359 145.148 55.2891C145.197 55.2422 145.221 55.1654 145.221 55.0586L145.221 54.2305L145.611 54.2305L145.611 55.0469C145.615 55.1445 145.641 55.2142 145.689 55.2559C145.739 55.2988 145.814 55.3203 145.916 55.3203L146.1 55.3203C146.206 55.3203 146.285 55.2962 146.334 55.248C146.383 55.2012 146.408 55.125 146.408 55.0195L146.408 54.291C146.408 54.1855 146.383 54.1094 146.334 54.0625C146.285 54.0156 146.206 53.9922 146.1 53.9922L145.951 53.9922L145.951 53.5996L146.119 53.5996C146.574 53.5996 146.801 53.8262 146.801 54.2793L146.801 55.0312C146.801 55.2617 146.745 55.4323 146.633 55.543C146.521 55.6549 146.35 55.7109 146.119 55.7109L146.068 55.7109C145.911 55.7109 145.781 55.6829 145.678 55.627C145.576 55.5723 145.501 55.4922 145.451 55.3867C145.416 55.5052 145.346 55.5957 145.24 55.6582C145.135 55.7207 144.995 55.752 144.82 55.752L144.68 55.752C144.227 55.752 144 55.5254 144 55.0723L144 54.2402C144 53.7858 144.227 53.5586 144.68 53.5586L144.848 53.5586ZM145.32 56.3125L145.32 57.248L144.936 57.248L144.936 56.3125L145.32 56.3125ZM144.965 57.6504L146.801 59.0312L146.801 59.502L144.965 59.502L144.965 59.8789L144.58 59.8789L144.58 59.502L144 59.502L144 59.1016L144.58 59.1016L144.58 57.6504L144.965 57.6504ZM144.965 59.1016L146.316 59.1016L144.965 58.0859L144.965 59.1016ZM146.801 61L144 61L144 60.5996L146.4 60.5996L146.4 60.1191L146.801 60.1191L146.801 61ZM144.68 63.7148C144.452 63.7109 144.281 63.6536 144.168 63.543C144.056 63.4323 144 63.263 144 63.0352L144 62.2832C144 61.8288 144.227 61.6016 144.68 61.6016L144.848 61.6016L144.848 61.9941L144.699 61.9941C144.594 61.9941 144.516 62.0176 144.467 62.0645C144.417 62.1113 144.393 62.1882 144.393 62.2949L144.393 63.0215C144.393 63.1283 144.417 63.2051 144.467 63.252C144.516 63.2988 144.594 63.3223 144.699 63.3223L145.076 63.3223C145.182 63.3223 145.258 63.2988 145.307 63.252C145.356 63.2051 145.381 63.1283 145.381 63.0215L145.381 61.6816L146.801 61.6816L146.801 63.6426L146.4 63.6426L146.4 62.082L145.771 62.082L145.771 63.0352C145.771 63.2643 145.715 63.4349 145.604 63.5469C145.493 63.6589 145.322 63.7148 145.092 63.7148L144.68 63.7148Z" fill="#FF009D"/>
</svg>
