<svg width="170" height="156" viewBox="0 0 170 156" fill="none" xmlns="http://www.w3.org/2000/svg">
<path d="M138 117H86.5L62 141.5" stroke="#FF009D" stroke-width="2"/>
<path d="M151 10H146V103L160 89V19L151 10Z" fill="#FF009D"/>
<path fill-rule="evenodd" clip-rule="evenodd" d="M146 10H10V146H146V10ZM66.5 21H29.7064L22 28.533V47.6167L29.7064 55.1498V89.2996L22 96.8326V116.921L26.1101 120.938V126.463L33.8165 133.996H47.6881L51.2844 130.48H58.4771V135H67.7248V132.489H88.2752V135H97.5229V130.48H104.716L108.312 133.996H122.183L129.89 126.463V120.938L134 116.921V96.8326L126.294 89.2996V55.1498L134 47.6167V28.533L126.294 21H87.5V18.5H66.5V21Z" fill="#FF009D"/>
<path d="M0 6.11959e-07H6V14H0V6.11959e-07Z" fill="#FF009D"/>
<path d="M0 6V6.11959e-07L14 0V6L0 6Z" fill="#FF009D"/>
<path d="M0 156H6V142H0V156Z" fill="#FF009D"/>
<path d="M0 150V156L14 156V150L0 150Z" fill="#FF009D"/>
<path d="M170 6.11959e-07H164V14H170V6.11959e-07Z" fill="#FF009D"/>
<path d="M170 6V6.11959e-07L156 0V6L170 6Z" fill="#FF009D"/>
<path d="M170 156H164V142H170V156Z" fill="#FF009D"/>
<path d="M170 150V156L156 156V150L170 150Z" fill="#FF009D"/>
<path fill-rule="evenodd" clip-rule="evenodd" d="M80.5 39L85 34.5H131L134.5 38V51.5L132.5 53.5H102.5L101 54.75V56V58.5V63.5H107.5V57.5L109 56H112V63.5H119.5V57.5L121 56H124V63.5H139.5V33H84L79.5 37.5H43.5L41 40V54.5H53V40H56V54.5H68V40H71V48.5L79.5 40L80.5 39Z" fill="#FF009D"/>
<path fill-rule="evenodd" clip-rule="evenodd" d="M80.5 69L85 64.5H131L134.5 68V81.5L132.5 83.5H102.5L101 84.75V86V88.5V93.5H107.5V87.5L109 86H112V93.5H119.5V87.5L121 86H124V93.5H139.5V63H84L79.5 67.5H43.5L41 70V84.5H53V70H56V84.5H68V70H71V78.5L79.5 70L80.5 69Z" fill="#FF009D"/>
<path fill-rule="evenodd" clip-rule="evenodd" d="M80.5 99L85 94.5H131L134.5 98V111.5L132.5 113.5V123.5H139.5V93H84L79.5 97.5H43.5L41 100V114.5H53V100H56V114.5H68V100H71V108.5L79.5 100L80.5 99Z" fill="#FF009D"/>
<path d="M130 126.5V122.5H141V140H26V130H126.5L130 126.5Z" fill="#FF009D"/>
<path d="M43.5 72L16 99.5" stroke="#FF009D" stroke-width="2"/>
</svg>
