<svg width="170" height="156" viewBox="0 0 170 156" fill="none" xmlns="http://www.w3.org/2000/svg">
<path d="M151 10H146V103L160 89V19L151 10Z" fill="#FF009D"/>
<path fill-rule="evenodd" clip-rule="evenodd" d="M146 10H10V146H146V10ZM66.5 21H29.7064L22 28.533V47.6167L29.7064 55.1498V89.2996L22 96.8326V116.921L26.1101 120.938V126.463L33.8165 133.996H47.6881L51.2844 130.48H58.4771V135H67.7248V132.489H88.2752V135H97.5229V130.48H104.716L108.312 133.996H122.183L129.89 126.463V120.938L134 116.921V96.8326L126.294 89.2996V55.1498L134 47.6167V28.533L126.294 21H87.5V18.5H66.5V21Z" fill="#FF009D"/>
<path d="M0 6.11959e-07H6V14H0V6.11959e-07Z" fill="#FF009D"/>
<path d="M0 6V6.11959e-07L14 0V6L0 6Z" fill="#FF009D"/>
<path d="M0 156H6V142H0V156Z" fill="#FF009D"/>
<path d="M0 150V156L14 156V150L0 150Z" fill="#FF009D"/>
<path d="M170 6.11959e-07H164V14H170V6.11959e-07Z" fill="#FF009D"/>
<path d="M170 6V6.11959e-07L156 0V6L170 6Z" fill="#FF009D"/>
<path d="M170 156H164V142H170V156Z" fill="#FF009D"/>
<path d="M170 150V156L156 156V150L170 150Z" fill="#FF009D"/>
<path d="M57.4595 115H41.2884V57.5822H57.4595V115ZM49.3652 49.7499C44.1942 49.7499 40 45.0275 40 39.326C40 36.5874 40.9867 33.9609 42.743 32.0244C44.4993 30.0879 46.8814 29 49.3652 29C51.849 29 54.2311 30.0879 55.9874 32.0244C57.7438 33.9609 58.7304 36.5874 58.7304 39.326C58.7304 45.0275 54.5345 49.7499 49.3652 49.7499ZM117.983 115H101.846V87.0494C101.846 80.3881 101.724 71.8455 93.4387 71.8455C85.0311 71.8455 83.7427 79.0827 83.7427 86.5695V115H67.589V57.5822H83.0985V65.4145H83.3248C85.4838 60.9033 90.7575 56.1424 98.6254 56.1424C114.991 56.1424 118 68.0253 118 83.4596V115H117.983Z" fill="#FF009D"/>
</svg>
