<svg width="146" height="126" viewBox="0 0 146 126" fill="none" xmlns="http://www.w3.org/2000/svg">
<path d="M106.674 62.4484C106.725 63.1702 106.725 63.8922 106.725 64.6141C106.725 86.6311 90.0218 112 59.4925 112C50.0869 112 41.3497 109.267 34 104.524C35.3363 104.678 36.6211 104.73 38.0089 104.73C45.7696 104.73 52.9137 102.1 58.6187 97.6141C51.3205 97.4594 45.2043 92.6641 43.097 86.0641C44.125 86.2186 45.1529 86.3218 46.2323 86.3218C47.7228 86.3218 49.2133 86.1155 50.601 85.7547C42.9944 84.2077 37.2892 77.5047 37.2892 69.4093V69.2032C39.4992 70.4407 42.0692 71.2141 44.793 71.3171C40.3215 68.3264 37.392 63.2218 37.392 57.4468C37.392 54.3531 38.2142 51.5171 39.6534 49.0421C47.8254 59.1484 60.1092 65.7482 73.8832 66.4702C73.6262 65.2327 73.472 63.9438 73.472 62.6547C73.472 53.4765 80.8731 46 90.0729 46C94.8528 46 99.17 48.0109 102.202 51.2594C105.954 50.5375 109.552 49.1453 112.739 47.2375C111.505 51.1048 108.884 54.3532 105.44 56.4156C108.781 56.0548 112.019 55.1265 115 53.8376C112.739 57.1374 109.912 60.0764 106.674 62.4484V62.4484Z" fill="#FF009D"/>
<path fill-rule="evenodd" clip-rule="evenodd" d="M85.2682 21.6888L88.8646 27.918L56.6277 27.918L60.2241 21.6888H85.2682ZM132.89 104.172L129.294 97.9432L113.095 126H120.288L132.89 104.172ZM124.907 126L135.199 108.172L145.492 126H124.907ZM25.087 126H32.2798L16.1399 98.0448L12.5435 104.274L25.087 126ZM10.2341 108.274L20.4682 126H0L10.2341 108.274ZM82.9588 17.6888H62.5335L72.7461 0L82.9588 17.6888Z" fill="#FF009D"/>
</svg>
